<svg width="121" height="19" viewBox="0 0 121 19" fill="none" xmlns="http://www.w3.org/2000/svg">
<path d="M1.27999 18C1.11999 18 0.975993 17.944 0.847993 17.832C0.735993 17.704 0.679993 17.56 0.679993 17.4V1.8C0.679993 1.624 0.735993 1.48 0.847993 1.368C0.975993 1.256 1.11999 1.2 1.27999 1.2H7.99999C10.048 1.2 11.656 1.672 12.824 2.616C14.008 3.56 14.6 4.936 14.6 6.744C14.6 8.536 14.016 9.888 12.848 10.8C11.68 11.696 10.064 12.144 7.99999 12.144H5.14399V17.4C5.14399 17.576 5.07999 17.72 4.95199 17.832C4.83999 17.944 4.69599 18 4.51999 18H1.27999ZM7.87999 8.832C8.58399 8.832 9.13599 8.656 9.53599 8.304C9.93599 7.936 10.136 7.4 10.136 6.696C10.136 6.04 9.94399 5.52 9.55999 5.136C9.19199 4.736 8.63199 4.536 7.87999 4.536H5.07199V8.832H7.87999Z" fill="black"/>
<path d="M17.4987 18C17.3387 18 17.1947 17.944 17.0667 17.832C16.9547 17.704 16.8987 17.56 16.8987 17.4V1.8C16.8987 1.624 16.9547 1.48 17.0667 1.368C17.1947 1.256 17.3387 1.2 17.4987 1.2H24.0267C26.1227 1.2 27.7547 1.68 28.9227 2.64C30.1067 3.584 30.6987 4.928 30.6987 6.672C30.6987 7.792 30.4347 8.744 29.9067 9.528C29.3787 10.312 28.6507 10.912 27.7227 11.328L31.0107 17.232C31.0587 17.328 31.0827 17.416 31.0827 17.496C31.0827 17.624 31.0267 17.744 30.9147 17.856C30.8187 17.952 30.7067 18 30.5787 18H27.3867C26.9227 18 26.5947 17.784 26.4027 17.352L23.6667 12.072H21.2187V17.4C21.2187 17.576 21.1547 17.72 21.0267 17.832C20.9147 17.944 20.7707 18 20.5947 18H17.4987ZM23.9787 8.664C24.7147 8.664 25.2747 8.488 25.6587 8.136C26.0427 7.768 26.2347 7.264 26.2347 6.624C26.2347 5.984 26.0427 5.48 25.6587 5.112C25.2907 4.728 24.7307 4.536 23.9787 4.536H21.2187V8.664H23.9787Z" fill="black"/>
<path d="M32.5325 18C32.4045 18 32.2845 17.952 32.1725 17.856C32.0765 17.744 32.0285 17.624 32.0285 17.496C32.0285 17.4 32.0365 17.328 32.0525 17.28L37.6925 1.872C37.7405 1.68 37.8445 1.52 38.0045 1.392C38.1645 1.264 38.3725 1.2 38.6285 1.2H42.1805C42.4365 1.2 42.6445 1.264 42.8045 1.392C42.9645 1.52 43.0685 1.68 43.1165 1.872L48.7325 17.28L48.7805 17.496C48.7805 17.624 48.7245 17.744 48.6125 17.856C48.5165 17.952 48.3965 18 48.2525 18H45.3005C44.9165 18 44.6605 17.832 44.5325 17.496L43.5965 15.048H37.1885L36.2765 17.496C36.1485 17.832 35.8845 18 35.4845 18H32.5325ZM42.6365 11.592L40.4045 5.256L38.1725 11.592H42.6365Z" fill="black"/>
<path d="M57.2086 18.24C54.9206 18.24 53.1286 17.688 51.8326 16.584C50.5526 15.464 49.8726 13.848 49.7926 11.736C49.7766 11.304 49.7686 10.6 49.7686 9.624C49.7686 8.632 49.7766 7.912 49.7926 7.464C49.8726 5.384 50.5686 3.784 51.8806 2.664C53.1926 1.528 54.9686 0.959999 57.2086 0.959999C58.6166 0.959999 59.8806 1.2 61.0006 1.68C62.1206 2.144 63.0006 2.816 63.6406 3.696C64.2966 4.56 64.6326 5.576 64.6486 6.744V6.792C64.6486 6.92 64.5926 7.032 64.4806 7.128C64.3846 7.208 64.2726 7.248 64.1446 7.248H60.9046C60.6966 7.248 60.5366 7.208 60.4246 7.128C60.3126 7.032 60.2166 6.864 60.1366 6.624C59.9126 5.808 59.5606 5.24 59.0806 4.92C58.6006 4.584 57.9686 4.416 57.1846 4.416C55.2966 4.416 54.3206 5.472 54.2566 7.584C54.2406 8.016 54.2326 8.68 54.2326 9.576C54.2326 10.472 54.2406 11.152 54.2566 11.616C54.3206 13.728 55.2966 14.784 57.1846 14.784C57.9686 14.784 58.6086 14.616 59.1046 14.28C59.6006 13.928 59.9446 13.36 60.1366 12.576C60.2006 12.336 60.2886 12.176 60.4006 12.096C60.5126 12 60.6806 11.952 60.9046 11.952H64.1446C64.2886 11.952 64.4086 12 64.5046 12.096C64.6166 12.192 64.6646 12.312 64.6486 12.456C64.6326 13.624 64.2966 14.648 63.6406 15.528C63.0006 16.392 62.1206 17.064 61.0006 17.544C59.8806 18.008 58.6166 18.24 57.2086 18.24Z" fill="black"/>
<path d="M73.4362 18.24C71.9162 18.24 70.6122 18.016 69.5242 17.568C68.4362 17.12 67.6122 16.536 67.0522 15.816C66.5082 15.08 66.2202 14.28 66.1882 13.416C66.1882 13.288 66.2362 13.176 66.3322 13.08C66.4442 12.968 66.5722 12.912 66.7162 12.912H69.7402C69.9322 12.912 70.0842 12.952 70.1962 13.032C70.3242 13.096 70.4522 13.2 70.5802 13.344C70.7882 13.76 71.1242 14.104 71.5882 14.376C72.0522 14.648 72.6682 14.784 73.4362 14.784C74.3482 14.784 75.0442 14.64 75.5242 14.352C76.0042 14.064 76.2442 13.672 76.2442 13.176C76.2442 12.824 76.1162 12.536 75.8602 12.312C75.6202 12.088 75.2362 11.888 74.7082 11.712C74.1802 11.536 73.3962 11.336 72.3562 11.112C70.4362 10.712 68.9962 10.128 68.0362 9.36C67.0922 8.576 66.6202 7.464 66.6202 6.024C66.6202 5.048 66.8922 4.176 67.4362 3.408C67.9802 2.64 68.7562 2.04 69.7642 1.608C70.7722 1.176 71.9482 0.959999 73.2922 0.959999C74.6842 0.959999 75.8922 1.2 76.9162 1.68C77.9402 2.16 78.7162 2.768 79.2442 3.504C79.7882 4.224 80.0762 4.936 80.1082 5.64C80.1082 5.784 80.0602 5.904 79.9642 6C79.8682 6.096 79.7482 6.144 79.6042 6.144H76.4362C76.2442 6.144 76.0842 6.112 75.9562 6.048C75.8442 5.984 75.7402 5.88 75.6442 5.736C75.5482 5.368 75.2842 5.056 74.8522 4.8C74.4362 4.544 73.9162 4.416 73.2922 4.416C72.5722 4.416 72.0202 4.544 71.6362 4.8C71.2522 5.056 71.0602 5.432 71.0602 5.928C71.0602 6.264 71.1642 6.544 71.3722 6.768C71.5962 6.992 71.9482 7.2 72.4282 7.392C72.9242 7.568 73.6282 7.752 74.5402 7.944C76.0282 8.216 77.2122 8.56 78.0922 8.976C78.9882 9.376 79.6442 9.904 80.0602 10.56C80.4762 11.2 80.6842 12.008 80.6842 12.984C80.6842 14.056 80.3722 14.992 79.7482 15.792C79.1402 16.576 78.2842 17.184 77.1802 17.616C76.0922 18.032 74.8442 18.24 73.4362 18.24Z" fill="black"/>
<path d="M83.6862 18C83.5262 18 83.3822 17.944 83.2542 17.832C83.1422 17.704 83.0862 17.56 83.0862 17.4V1.8C83.0862 1.624 83.1422 1.48 83.2542 1.368C83.3822 1.256 83.5262 1.2 83.6862 1.2H86.9022C87.0782 1.2 87.2222 1.256 87.3342 1.368C87.4622 1.48 87.5262 1.624 87.5262 1.8V17.4C87.5262 17.576 87.4622 17.72 87.3342 17.832C87.2222 17.944 87.0782 18 86.9022 18H83.6862Z" fill="black"/>
<path d="M95.1635 18C95.0035 18 94.8595 17.944 94.7315 17.832C94.6195 17.704 94.5635 17.56 94.5635 17.4V4.968H90.2915C90.1315 4.968 89.9875 4.912 89.8595 4.8C89.7475 4.672 89.6915 4.528 89.6915 4.368V1.8C89.6915 1.624 89.7475 1.48 89.8595 1.368C89.9875 1.256 90.1315 1.2 90.2915 1.2H103.203C103.379 1.2 103.523 1.256 103.635 1.368C103.747 1.48 103.803 1.624 103.803 1.8V4.368C103.803 4.544 103.747 4.688 103.635 4.8C103.523 4.912 103.379 4.968 103.203 4.968H98.9315V17.4C98.9315 17.56 98.8755 17.704 98.7635 17.832C98.6515 17.944 98.5075 18 98.3315 18H95.1635Z" fill="black"/>
<path d="M110.905 18C110.745 18 110.601 17.944 110.473 17.832C110.361 17.704 110.305 17.56 110.305 17.4V12.24L104.737 1.968C104.689 1.824 104.665 1.736 104.665 1.704C104.665 1.576 104.713 1.464 104.809 1.368C104.921 1.256 105.049 1.2 105.193 1.2H108.193C108.513 1.2 108.793 1.368 109.033 1.704L112.465 7.896L115.921 1.704C116.113 1.368 116.393 1.2 116.761 1.2H119.761C119.905 1.2 120.025 1.256 120.121 1.368C120.217 1.464 120.265 1.576 120.265 1.704C120.265 1.784 120.249 1.872 120.217 1.968L114.649 12.24V17.4C114.649 17.576 114.585 17.72 114.457 17.832C114.345 17.944 114.201 18 114.025 18H110.905Z" fill="black"/>
</svg>
